<svg width="200" height="200" viewBox="0 0 200 200" fill="none" xmlns="http://www.w3.org/2000/svg">
<rect width="200" height="200" fill="#EEEEEE"/>
<g opacity="0.6">
<path opacity="0.2" d="M125.188 83.2286L100 94.1876C99.9795 90.1153 101.527 86.1912 104.321 83.2286C105.655 81.796 107.27 80.6536 109.065 79.8724C110.86 79.0913 112.796 78.6881 114.754 78.6881C116.712 78.6881 118.648 79.0913 120.443 79.8724C122.238 80.6536 123.853 81.796 125.188 83.2286ZM111.761 92.778C107.792 91.7159 103.563 92.2679 100 94.3135L122.72 111.625C123.248 109.673 123.384 107.635 123.118 105.631C122.853 103.626 122.191 101.694 121.172 99.9468C120.152 98.1917 118.795 96.655 117.18 95.4249C115.565 94.1948 113.724 93.2953 111.761 92.778ZM95.6794 83.2286C94.3452 81.796 92.7303 80.6536 90.9352 79.8724C89.1402 79.0913 87.2036 78.6881 85.2459 78.6881C83.2883 78.6881 81.3517 79.0913 79.5566 79.8724C77.7616 80.6536 76.1467 81.796 74.8125 83.2286L100 94.1876C100.021 90.1153 98.4735 86.1912 95.6794 83.2286ZM88.2394 92.778C86.2763 93.2953 84.4345 94.1948 82.8195 95.4249C81.2046 96.655 79.8482 98.1917 78.828 99.9468C77.8089 101.694 77.1473 103.626 76.8816 105.631C76.616 107.635 76.7515 109.673 77.2804 111.625L100 94.3135C96.4367 92.2679 92.2085 91.7159 88.2394 92.778Z" fill="#4A4A4A"/>
<path d="M126.59 81.8917C125.075 80.2691 123.242 78.9753 121.206 78.0908C119.17 77.2062 116.974 76.7498 114.754 76.7498C112.534 76.7498 110.338 77.2062 108.302 78.0908C106.266 78.9753 104.433 80.2691 102.918 81.8917C101.752 83.1158 100.769 84.5026 100 86.0089C99.2352 84.5034 98.2563 83.1166 97.0938 81.8917C95.5788 80.2691 93.7464 78.9753 91.7103 78.0908C89.6742 77.2062 87.478 76.7498 85.2581 76.7498C83.0382 76.7498 80.842 77.2062 78.8059 78.0908C76.7698 78.9753 74.9374 80.2691 73.4224 81.8917C73.2076 82.1174 73.0503 82.3916 72.9641 82.6911C72.8778 82.9905 72.865 83.3063 72.9268 83.6117C72.9886 83.9172 73.1231 84.2032 73.319 84.4455C73.5149 84.6879 73.7664 84.8794 74.0521 85.0038L87.6485 90.9301C83.2207 92.114 79.4438 95.0068 77.1472 98.9732C75.995 100.939 75.2473 103.116 74.9478 105.375C74.6484 107.634 74.8033 109.93 75.4035 112.129C75.4865 112.435 75.6434 112.716 75.8605 112.948C76.0776 113.179 76.3483 113.354 76.6487 113.456C76.9491 113.559 77.27 113.586 77.5833 113.535C77.8966 113.484 78.1926 113.357 78.4454 113.165L98.0626 98.2272V123.25C98.0626 123.764 98.2667 124.257 98.63 124.62C98.9934 124.983 99.4862 125.188 100 125.188C100.514 125.188 101.007 124.983 101.37 124.62C101.733 124.257 101.938 123.764 101.938 123.25V98.2272L121.555 113.165C121.808 113.358 122.104 113.485 122.417 113.536C122.731 113.587 123.052 113.56 123.353 113.458C123.654 113.356 123.925 113.181 124.142 112.949C124.359 112.717 124.516 112.436 124.599 112.129C125.199 109.93 125.354 107.634 125.055 105.375C124.755 103.116 124.007 100.939 122.855 98.9732C120.558 95.0063 116.78 92.1134 112.352 90.9301L125.967 85.0038C126.253 84.8794 126.505 84.6879 126.7 84.4455C126.896 84.2032 127.031 83.9172 127.093 83.6117C127.155 83.3063 127.142 82.9905 127.055 82.6911C126.969 82.3916 126.812 82.1174 126.597 81.8917H126.59ZM85.246 80.6251C86.9403 80.6289 88.6158 80.9803 90.1688 81.6577C91.7218 82.335 93.1193 83.3239 94.2747 84.563C96.0012 86.38 97.1958 88.636 97.7283 91.0851L78.4454 82.6909C80.4578 81.3443 82.8246 80.6253 85.246 80.6251ZM78.6876 108.113C78.595 105.593 79.2226 103.097 80.4967 100.92C81.3873 99.3833 82.5735 98.0379 83.9868 96.9617C85.4001 95.8855 87.0125 95.0999 88.7311 94.6501C89.8869 94.3418 91.0781 94.1863 92.2743 94.1876C93.6061 94.1874 94.9307 94.3841 96.205 94.7712L78.6876 108.113ZM119.496 100.92C120.773 103.097 121.403 105.592 121.313 108.113L103.802 94.7688C106.73 93.8847 109.87 94.0106 112.718 95.1263C115.566 96.242 117.955 98.2827 119.503 100.92H119.496ZM102.272 91.0851C102.804 88.636 103.999 86.38 105.725 84.563C106.881 83.3239 108.278 82.335 109.831 81.6577C111.384 80.9803 113.06 80.6289 114.754 80.6251C117.176 80.6253 119.542 81.3443 121.555 82.6909L102.272 91.0851Z" fill="#4A4A4A"/>
</g>
</svg>
