<svg width="512" height="512" viewBox="0 0 512 512" fill="none" xmlns="http://www.w3.org/2000/svg">
<g clip-path="url(#clip0_535_2)">
<rect width="512" height="501" rx="136" fill="url(#paint0_radial_535_2)"/>
<rect width="512" height="501" rx="136" fill="url(#paint1_radial_535_2)" fill-opacity="0.75"/>
<rect x="13" y="13" width="486" height="475" rx="123" stroke="white" stroke-opacity="0.13" stroke-width="26"/>
<path d="M405.348 159.833C405.006 161.523 404.261 163.107 403.177 164.448C402.092 165.789 400.7 166.849 399.118 167.537L323.832 200.323C348.328 206.872 369.223 222.876 381.928 244.819C388.302 255.696 392.439 267.738 394.095 280.236C395.752 292.734 394.895 305.437 391.575 317.599C391.116 319.294 390.247 320.85 389.046 322.131C387.845 323.411 386.348 324.377 384.686 324.943C383.024 325.51 381.248 325.659 379.515 325.378C377.782 325.098 376.144 324.396 374.746 323.334L266.219 240.692V379.125C266.219 381.968 265.09 384.694 263.079 386.704C261.069 388.714 258.343 389.844 255.5 389.844C252.657 389.844 249.931 388.714 247.921 386.704C245.911 384.694 244.781 381.968 244.781 379.125V240.692L136.254 323.334C134.856 324.399 133.217 325.103 131.482 325.386C129.747 325.668 127.969 325.519 126.306 324.953C124.642 324.386 123.143 323.419 121.941 322.137C120.739 320.855 119.87 319.296 119.412 317.599C116.092 305.437 115.235 292.734 116.891 280.236C118.548 267.738 122.685 255.696 129.059 244.819C141.767 222.873 162.667 206.869 187.168 200.323L111.882 167.537C110.302 166.848 108.911 165.789 107.827 164.448C106.743 163.108 105.999 161.525 105.657 159.836C105.315 158.146 105.386 156.399 105.863 154.742C106.34 153.086 107.21 151.569 108.399 150.32C116.78 141.343 126.917 134.186 138.182 129.292C149.446 124.399 161.596 121.873 173.877 121.873C186.158 121.873 198.308 124.399 209.572 129.292C220.836 134.186 230.974 141.343 239.355 150.32C245.786 157.096 251.201 164.768 255.433 173.097C259.685 164.764 265.124 157.092 271.578 150.32C279.959 141.343 290.097 134.186 301.361 129.292C312.625 124.399 324.775 121.873 337.056 121.873C349.337 121.873 361.487 124.399 372.752 129.292C384.016 134.186 394.153 141.343 402.535 150.32C403.735 151.561 404.618 153.075 405.108 154.731C405.598 156.388 405.68 158.138 405.348 159.833Z" fill="white"/>
</g>
<defs>
<radialGradient id="paint0_radial_535_2" cx="0" cy="0" r="1" gradientUnits="userSpaceOnUse" gradientTransform="translate(270.5 618.5) rotate(-91.8939) scale(438.74 448.373)">
<stop stop-color="#FF1A00"/>
<stop offset="1" stop-color="#FF9A00"/>
</radialGradient>
<radialGradient id="paint1_radial_535_2" cx="0" cy="0" r="1" gradientUnits="userSpaceOnUse" gradientTransform="translate(256) rotate(90) scale(423.5 423.5)">
<stop stop-color="#7000FF"/>
<stop offset="1" stop-color="#7000FF" stop-opacity="0"/>
</radialGradient>
<clipPath id="clip0_535_2">
<rect width="512" height="512" fill="white"/>
</clipPath>
</defs>
</svg>
